<svg width="148" height="148" viewBox="0 0 148 148" fill="none" xmlns="http://www.w3.org/2000/svg">
<rect x="12.8267" y="121.514" width="37.0154" height="10.5758" rx="1.23333" fill="#5BBDA0"/>
<rect x="44.5542" y="121.514" width="63.455" height="10.5758" rx="1.23333" fill="#80CCB5"/>
<path d="M18.1146 76.5669H60.418V87.1427H20.5813C19.219 87.1427 18.1146 86.0383 18.1146 84.676V76.5669Z" fill="#599F40"/>
<path d="M49.842 76.5669H102.721V84.676C102.721 86.0383 101.617 87.1427 100.255 87.1427H52.3087C50.9464 87.1427 49.842 86.0383 49.842 84.676V76.5669Z" fill="#78B441"/>
<path d="M99.0197 76.5669H93.7318L73.6377 56.4728L76.2817 53.8288L99.0197 76.5669Z" fill="#599F40"/>
<path d="M93.7317 76.5669H53.5436L73.6377 56.4728L93.7317 76.5669Z" fill="#CAE8DF"/>
<path d="M44.5541 47.4833C43.8529 47.4833 43.1804 47.7619 42.6845 48.2577L16.2449 74.6973C15.4888 75.4535 15.2626 76.5907 15.6718 77.5787C16.081 78.5667 17.0451 79.2108 18.1145 79.2108H49.842V78.4364L76.2816 51.772V47.4833H44.5541Z" fill="#599F40"/>
<path d="M18.1146 112.172C18.1146 111.491 18.6668 110.938 19.348 110.938H53.8967C54.5779 110.938 55.13 111.491 55.13 112.172V121.514H18.1146V112.172Z" fill="#5BBDA0"/>
<path d="M49.842 112.172C49.842 111.491 50.3942 110.938 51.0754 110.938H101.488C102.169 110.938 102.721 111.491 102.721 112.172V121.514H49.842V112.172Z" fill="#80CCB5"/>
<path fill-rule="evenodd" clip-rule="evenodd" d="M74.4121 48.2577C75.4446 47.2252 77.1187 47.2252 78.1512 48.2577L104.591 74.6973C105.623 75.7298 105.623 77.4039 104.591 78.4364C103.558 79.469 101.884 79.469 100.852 78.4364L76.2817 53.8664L51.7116 78.4364C50.6791 79.469 49.005 79.469 47.9725 78.4364C46.94 77.4039 46.94 75.7298 47.9725 74.6973L74.4121 48.2577Z" fill="#78B441"/>
<rect x="49.842" y="87.1427" width="47.5913" height="23.7956" fill="#CAE8DF"/>
<rect x="23.4025" y="87.1427" width="26.4396" height="23.7956" fill="#A6DBCB"/>
<path d="M49.8421 81.8548H18.1146" stroke="#0F172A" stroke-width="1.48" stroke-linecap="round"/>
<path d="M102.721 81.8548H49.842" stroke="#0F172A" stroke-width="1.48" stroke-linecap="round"/>
<path d="M102.721 121.514H49.842" stroke="#5BBDA0" stroke-width="1.48" stroke-linecap="round"/>
<path d="M95.7554 91.0067C96.788 90.0417 97.4334 88.6676 97.4334 87.1427H86.8575C86.8575 88.6676 87.503 90.0417 88.5355 91.0067C87.503 91.9718 86.8575 93.3459 86.8575 94.8707V110.938H97.4334V94.8707C97.4334 93.3459 96.788 91.9718 95.7554 91.0067Z" fill="#78B441"/>
<path d="M97.4334 94.8567V103.006C92.078 103.006 87.6524 99.026 86.9536 93.8622C87.1693 92.7453 87.7365 91.7535 88.5355 91.0067C87.503 90.0417 86.8575 88.6676 86.8575 87.1427H97.4334C97.4294 88.662 96.7848 90.0446 95.7554 91.0067C96.7848 91.9688 97.4294 93.3375 97.4334 94.8567Z" fill="#599F40"/>
<path d="M79.8916 91.0067C80.9242 90.0417 81.5696 88.6676 81.5696 87.1427H70.9938C70.9938 88.6676 71.6392 90.0417 72.6717 91.0067C71.6392 91.9718 70.9938 93.3459 70.9938 94.8707V110.938H81.5696V94.8707C81.5696 93.3459 80.9242 91.9718 79.8916 91.0067Z" fill="#78B441"/>
<path d="M81.5696 94.8567V103.006C76.2143 103.006 71.7886 99.026 71.0898 93.8622C71.3055 92.7453 71.8727 91.7535 72.6717 91.0067C71.6392 90.0417 70.9938 88.6676 70.9938 87.1427H81.5696C81.5657 88.662 80.921 90.0446 79.8916 91.0067C80.921 91.9688 81.5657 93.3375 81.5696 94.8567Z" fill="#599F40"/>
<path d="M64.0279 91.0067C65.0604 90.0417 65.7058 88.6676 65.7058 87.1427H55.13C55.13 88.6676 55.7754 90.0417 56.808 91.0067C55.7754 91.9718 55.13 93.3459 55.13 94.8707V110.938H65.7058V94.8707C65.7058 93.3459 65.0604 91.9718 64.0279 91.0067Z" fill="#78B441"/>
<path d="M65.7058 94.8567V103.006C60.3505 103.006 55.9248 99.026 55.2261 93.8622C55.4418 92.7453 56.009 91.7535 56.808 91.0067C55.7754 90.0417 55.13 88.6676 55.13 87.1427H65.7058C65.7019 88.662 65.0573 90.0446 64.0279 91.0067C65.0573 91.9688 65.7019 93.3375 65.7058 94.8567Z" fill="#599F40"/>
<path d="M97.4333 87.1427H23.4025" stroke="#0F172A" stroke-width="1.48" stroke-linecap="round"/>
<path d="M97.4333 110.938H49.842" stroke="#5BBDA0" stroke-width="1.48" stroke-linecap="round"/>
<path d="M97.4333 110.938H23.4025" stroke="#0F172A" stroke-width="1.48" stroke-linecap="round"/>
<path d="M102.721 121.514H18.1146" stroke="#0F172A" stroke-width="1.48" stroke-linecap="round"/>
<path d="M73.3544 49.3154L49.03 73.6398M53.5436 76.5669H93.7318M49.8421 109.352V88.7291" stroke="white" stroke-width="1.48" stroke-linecap="round" stroke-linejoin="round"/>
<path d="M121.89 101.717C126.094 101.717 129.501 98.3087 129.501 94.1049L91.4432 94.1049C91.4432 98.3087 88.0354 101.717 83.8316 101.717L121.89 101.717Z" fill="#E2E8F0"/>
<path d="M83.8317 40.8233L83.8317 86.4932L121.89 86.4932L121.89 40.8233L83.8317 40.8233Z" fill="#E2E8F0"/>
<path d="M83.8316 101.717C79.6278 101.717 76.22 98.3087 76.22 94.1049L76.22 48.435L114.278 48.435L114.278 94.1049C114.278 98.3087 117.686 101.717 121.89 101.717L83.8316 101.717Z" fill="#F1F5F9"/>
<path d="M114.278 94.1049C114.278 98.3087 117.686 101.717 121.89 101.717" stroke="#0F172A" stroke-width="1.48" stroke-linecap="round" stroke-linejoin="round"/>
<path d="M86.7144 63.4594L89.3886 68.0605C89.7011 68.5984 89.5157 69.2862 88.9745 69.5967C88.4334 69.9073 87.7414 69.723 87.429 69.1851L85.7346 66.27M86.7144 63.4594C86.9095 63.7959 86.9238 64.2237 86.7144 64.5843L85.7346 66.27M86.7144 63.4594C86.6113 63.2819 86.4668 63.143 86.3002 63.0476C85.9376 62.8395 85.5074 62.8544 85.1689 63.048C85.0022 63.1434 84.8578 63.2819 84.7548 63.4593M84.7548 63.4593L82.0805 68.0605C81.7681 68.5984 81.9535 69.2862 82.4946 69.5967C83.0358 69.9073 83.7277 69.723 84.0402 69.1851L85.7346 66.27M84.7548 63.4593C84.5596 63.7958 84.5453 64.2238 84.7548 64.5843L85.7346 66.27" stroke="#A6DBCB" stroke-width="0.986667"/>
<path d="M108.569 67.4641H93.3462M108.569 71.2699H93.3462M108.569 78.8816H81.9287M108.569 86.4932H81.9287M108.569 75.0757H81.9287M108.569 82.6874H81.9287M108.569 90.299H81.9287M108.569 59.8524H93.3462M108.569 63.6583H93.3462" stroke="#5BBDA0" stroke-width="0.986667" stroke-linecap="round" stroke-linejoin="round"/>
<path d="M125.696 73.7366L134.449 82.4899C135.5 83.5409 135.5 85.2448 134.449 86.2958C133.398 87.3467 131.694 87.3467 130.643 86.2958L121.89 77.5424L125.696 73.7366Z" fill="#5BBDA0"/>
<path d="M121.89 77.5424L125.696 73.7366L128.36 76.4006V84.0123L121.89 77.5424Z" fill="#42A486"/>
<path d="M133.307 83.6317L131.404 81.7288" stroke="#80CCB5" stroke-width="0.986667" stroke-linecap="round" stroke-linejoin="round"/>
<path fill-rule="evenodd" clip-rule="evenodd" d="M118.084 81.3482C124.39 81.3482 129.501 76.2364 129.501 69.9307C129.501 63.625 124.39 58.5132 118.084 58.5132C111.778 58.5132 106.667 63.625 106.667 69.9307C106.667 76.2364 111.778 81.3482 118.084 81.3482Z" fill="#78B441"/>
<circle cx="118.084" cy="69.9308" r="7.61165" fill="#CAE8DF"/>
<path d="M113.517 69.9307C113.517 67.4085 115.562 65.3638 118.084 65.3638" stroke="white" stroke-width="0.986667" stroke-linecap="round"/>
<path d="M104.957 15.7867L104.957 29.8467M94.5967 22.4467L112.357 22.4467M104.957 32.8067L104.957 34.2867" stroke="black" stroke-width="1.48" stroke-linecap="round" stroke-linejoin="round"/>
<circle cx="122.593" cy="114.823" r="2.96" stroke="#0F172A" stroke-width="1.48"/>
<path d="M24.6666 35.89L38.7266 35.89M31.3266 46.25L31.3266 28.49M41.6866 35.89L43.1666 35.89" stroke="black" stroke-width="1.48" stroke-linecap="round" stroke-linejoin="round"/>
</svg>
