<?xml version="1.0" encoding="UTF-8"?>
<svg xmlns="http://www.w3.org/2000/svg" xmlns:xlink="http://www.w3.org/1999/xlink" width="148px" height="148px" viewBox="0 0 148 148" version="1.1">
<g id="surface1">
<path style=" stroke:none;fill-rule:nonzero;fill:rgb(92.941177%,96.862745%,95.686275%);fill-opacity:1;" d="M 76.613281 24.066406 C 65.886719 21.859375 56.585938 27.195312 49.359375 34.664062 C 42.136719 42.128906 36.917969 51.78125 34.316406 58.40625 C 31.273438 64.429688 25.839844 76.175781 22.472656 88.171875 C 20.785156 94.175781 19.613281 100.257812 19.523438 105.722656 C 19.433594 111.1875 20.425781 116.082031 23.113281 119.664062 C 25.785156 123.226562 30.042969 126.097656 35.277344 128.285156 C 40.511719 130.476562 46.753906 132 53.417969 132.851562 C 66.746094 134.554688 81.824219 133.582031 94.097656 129.882812 C 106.425781 126.164062 116.183594 116.78125 123.429688 106.324219 C 130.679688 95.863281 135.445312 84.285156 137.78125 76.109375 C 138.992188 71.878906 137.339844 66.839844 133.894531 61.636719 C 130.433594 56.421875 125.121094 50.964844 118.851562 45.859375 C 106.3125 35.65625 89.875 26.796875 76.613281 24.066406 Z M 76.613281 24.066406 "/>
<path style=" stroke:none;fill-rule:nonzero;fill:rgb(0%,40.000001%,30.980393%);fill-opacity:1;" d="M 5.957031 71.355469 C 6.605469 82.996094 19.144531 95.011719 26.125 100.050781 C 30.777344 98.5 37.214844 90.359375 42.800781 81.050781 C 48.382812 71.742188 47.195312 62.691406 45.902344 59.332031 C 49.78125 57.78125 58.621094 53.59375 62.964844 49.25 C 67.308594 44.90625 66.328125 38.390625 65.292969 35.675781 C 64.386719 35.675781 61.957031 35.753906 59.476562 36.0625 C 56.992188 36.375 54.046875 36.96875 52.882812 37.226562 C 52.882812 36.582031 52.804688 34.976562 52.496094 33.738281 C 52.183594 32.496094 51.332031 31.152344 50.945312 30.632812 C 49.910156 30.894531 47.453125 31.796875 45.902344 33.347656 C 44.351562 34.898438 43.1875 36.839844 42.800781 37.613281 C 36.59375 36.320312 22.324219 34.898438 14.878906 39.554688 C 7.429688 44.207031 8.414062 54.679688 9.835938 59.332031 C 8.285156 60.882812 5.570312 64.375 5.957031 71.355469 Z M 5.957031 71.355469 "/>
<path style=" stroke:none;fill-rule:nonzero;fill:rgb(23.921569%,67.450982%,54.11765%);fill-opacity:1;" d="M 77.070312 78.128906 C 74.996094 72.230469 68.539062 75.03125 66.171875 77.320312 L 68.6875 88.570312 C 71.890625 88.460938 79.148438 84.023438 77.070312 78.128906 Z M 77.070312 78.128906 "/>
<path style=" stroke:none;fill-rule:nonzero;fill:rgb(23.921569%,67.450982%,54.11765%);fill-opacity:1;" d="M 37.386719 104.722656 C 37.261719 104.71875 37.148438 104.773438 37.074219 104.875 C 37 104.96875 36.980469 105.097656 37.019531 105.214844 L 42.917969 122.3125 L 30.878906 129.15625 C 29.921875 129.703125 29.585938 130.984375 30.335938 131.871094 C 35.742188 138.261719 47.839844 142.511719 59.566406 139.582031 C 66.40625 137.871094 70.230469 134.695312 72.355469 131.320312 C 74.472656 127.957031 74.875 124.433594 74.953125 122.074219 C 74.984375 121.042969 74.175781 120.210938 73.167969 120.148438 L 60.882812 119.390625 L 56.335938 105.753906 C 56.289062 105.605469 56.15625 105.507812 56 105.5 Z M 37.386719 104.722656 "/>
<path style=" stroke:none;fill-rule:evenodd;fill:rgb(13.725491%,13.725491%,13.725491%);fill-opacity:1;" d="M 37.386719 104.722656 C 37.261719 104.71875 37.148438 104.773438 37.074219 104.875 C 37 104.96875 36.980469 105.097656 37.019531 105.214844 L 38.808594 110.398438 C 38.832031 110.46875 38.878906 110.53125 38.9375 110.578125 C 44.015625 114.316406 51.589844 117.949219 60.15625 118.863281 C 60.28125 118.878906 60.402344 118.824219 60.484375 118.726562 C 60.5625 118.628906 60.585938 118.5 60.546875 118.378906 L 56.335938 105.753906 C 56.289062 105.605469 56.15625 105.507812 56 105.5 Z M 37.386719 104.722656 "/>
<path style=" stroke:none;fill-rule:evenodd;fill:rgb(13.725491%,13.725491%,13.725491%);fill-opacity:1;" d="M 74.941406 79.742188 C 75.019531 79.933594 74.929688 80.148438 74.742188 80.226562 L 70.089844 82.167969 C 69.898438 82.246094 69.683594 82.15625 69.605469 81.96875 C 69.527344 81.777344 69.617188 81.5625 69.804688 81.484375 L 74.457031 79.546875 C 74.648438 79.464844 74.863281 79.554688 74.941406 79.742188 Z M 74.941406 79.742188 "/>
<path style=" stroke:none;fill-rule:nonzero;fill:rgb(23.921569%,67.450982%,54.11765%);fill-opacity:1;" d="M 64.90625 107.035156 C 55.210938 114.371094 35.339844 111.648438 23.019531 94.234375 C 10.703125 76.820312 14.488281 58.050781 26.511719 51.574219 C 42.410156 43.015625 58.3125 56.195312 66.066406 66.3125 C 74.394531 77.171875 77.316406 97.640625 64.90625 107.035156 Z M 64.90625 107.035156 "/>
<path style=" stroke:none;fill-rule:nonzero;fill:rgb(13.725491%,13.725491%,13.725491%);fill-opacity:1;" d="M 52.824219 45.980469 C 52.765625 45.859375 52.636719 45.777344 52.5 45.777344 C 52.363281 45.773438 52.234375 45.851562 52.167969 45.972656 C 51.613281 47.011719 50.355469 49.011719 48.460938 51.421875 C 48.394531 51.507812 48.367188 51.625 48.394531 51.734375 C 48.417969 51.84375 48.492188 51.933594 48.59375 51.984375 C 50.253906 52.777344 51.855469 53.714844 53.394531 54.746094 C 53.492188 54.816406 53.621094 54.828125 53.734375 54.785156 C 53.847656 54.742188 53.929688 54.644531 53.957031 54.527344 C 54.757812 51.195312 53.65625 47.644531 52.824219 45.980469 Z M 52.824219 45.980469 "/>
<path style=" stroke:none;fill-rule:nonzero;fill:rgb(13.725491%,13.725491%,13.725491%);fill-opacity:1;" d="M 45.546875 49.921875 C 39.53125 47.832031 32.933594 47.699219 26.335938 51.25 C 17.734375 55.882812 13.320312 66.640625 15.714844 78.675781 C 15.746094 78.824219 15.867188 78.941406 16.019531 78.96875 C 17.96875 79.285156 20.941406 78.683594 25.160156 75.929688 C 27.832031 74.238281 32 71.140625 35.855469 67.332031 C 39.707031 63.53125 43.28125 58.988281 44.703125 54.398438 C 45.1875 52.835938 45.542969 51.496094 45.789062 50.351562 C 45.828125 50.167969 45.726562 49.984375 45.546875 49.921875 Z M 45.546875 49.921875 "/>
<path style=" stroke:none;fill-rule:nonzero;fill:rgb(0%,40.000001%,30.980393%);fill-opacity:1;" d="M 42.800781 58.167969 C 48.074219 53.203125 51.460938 48.085938 52.496094 46.148438 C 39.308594 41.878906 26.511719 46.148438 17.203125 55.84375 C 9.949219 63.402344 8.671875 74.84375 12.550781 83.375 C 15.652344 90.203125 21.597656 94.492188 24.183594 95.785156 C 26.382812 93.328125 30.46875 88.339844 30.777344 83.375 C 31.085938 78.414062 26.898438 72.648438 24.574219 70.964844 C 28.449219 68.769531 37.527344 63.132812 42.800781 58.167969 Z M 42.800781 58.167969 "/>
<path style=" stroke:none;fill-rule:nonzero;fill:rgb(23.921569%,67.450982%,54.11765%);fill-opacity:1;" d="M 21.082031 105.867188 C 16.429688 100.4375 22.890625 95.65625 26.511719 94.621094 L 36.207031 103.542969 C 34.269531 106.644531 25.730469 111.292969 21.082031 105.867188 Z M 21.082031 105.867188 "/>
<path style=" stroke:none;fill-rule:evenodd;fill:rgb(0%,40.000001%,30.980393%);fill-opacity:1;" d="M 54.867188 73.382812 C 54.269531 71.886719 52.625 70.960938 50.226562 71.332031 C 50.023438 71.363281 49.832031 71.226562 49.804688 71.023438 C 49.773438 70.820312 49.910156 70.632812 50.113281 70.601562 C 52.753906 70.195312 54.792969 71.207031 55.554688 73.105469 C 56.300781 74.980469 55.734375 77.546875 53.554688 80.125 C 53.421875 80.28125 53.1875 80.300781 53.03125 80.167969 C 52.875 80.035156 52.855469 79.804688 52.988281 79.648438 C 55.074219 77.183594 55.476562 74.902344 54.867188 73.382812 Z M 54.867188 73.382812 "/>
<path style=" stroke:none;fill-rule:nonzero;fill:rgb(13.725491%,13.725491%,13.725491%);fill-opacity:1;" d="M 44.738281 90.355469 C 45.644531 90.355469 48.074219 90.203125 50.554688 89.582031 C 51.742188 89.285156 53.15625 88.679688 54.464844 88.03125 C 55.210938 89.582031 56.070312 91.519531 56.761719 94.621094 C 57.535156 98.113281 54.578125 99.890625 51.332031 97.726562 C 48.085938 95.5625 46.03125 92.296875 44.738281 90.355469 Z M 44.738281 90.355469 "/>
<path style=" stroke:none;fill-rule:nonzero;fill:rgb(52.549022%,78.823531%,70.980394%);fill-opacity:1;" d="M 53.765625 93.882812 C 51.269531 93.132812 48.785156 93.308594 47.246094 93.613281 C 47.117188 93.636719 47.011719 93.726562 46.96875 93.851562 C 46.925781 93.972656 46.949219 94.109375 47.03125 94.210938 C 48.125 95.550781 49.46875 96.929688 51.125 98.035156 C 52.492188 98.941406 53.855469 99.21875 54.96875 98.929688 C 56.097656 98.636719 56.917969 97.777344 57.171875 96.550781 C 57.195312 96.441406 57.164062 96.324219 57.089844 96.238281 C 56.191406 95.1875 55.074219 94.273438 53.765625 93.882812 Z M 53.765625 93.882812 "/>
<path style=" stroke:none;fill-rule:evenodd;fill:rgb(13.725491%,13.725491%,13.725491%);fill-opacity:1;" d="M 58.238281 85.894531 C 58.347656 86.0625 58.296875 86.292969 58.125 86.402344 C 57.429688 86.84375 56.257812 87.53125 54.953125 88.199219 C 55.667969 89.710938 56.472656 91.617188 57.121094 94.542969 C 57.535156 96.398438 56.964844 97.902344 55.742188 98.613281 C 54.53125 99.320312 52.824219 99.164062 51.125 98.03125 C 48.003906 95.953125 45.964844 92.878906 44.667969 90.917969 C 44.585938 90.792969 44.507812 90.675781 44.429688 90.5625 C 44.355469 90.449219 44.347656 90.300781 44.414062 90.183594 C 44.476562 90.0625 44.601562 89.988281 44.738281 89.988281 C 45.617188 89.988281 48.019531 89.835938 50.464844 89.222656 C 51.617188 88.933594 53 88.34375 54.296875 87.699219 C 55.710938 86.996094 56.996094 86.246094 57.726562 85.777344 C 57.898438 85.667969 58.128906 85.71875 58.238281 85.894531 Z M 54.289062 88.527344 C 53.070312 89.117188 51.769531 89.660156 50.644531 89.941406 C 48.601562 90.453125 46.597656 90.652344 45.417969 90.707031 C 46.722656 92.671875 48.648438 95.492188 51.535156 97.417969 C 53.085938 98.449219 54.480469 98.492188 55.367188 97.976562 C 56.242188 97.46875 56.761719 96.339844 56.398438 94.703125 C 55.765625 91.855469 54.988281 90.007812 54.289062 88.527344 Z M 54.289062 88.527344 "/>
<path style=" stroke:none;fill-rule:evenodd;fill:rgb(13.725491%,13.725491%,13.725491%);fill-opacity:1;" d="M 31.117188 100.296875 C 31.199219 100.488281 31.109375 100.703125 30.917969 100.78125 L 26.265625 102.722656 C 26.078125 102.800781 25.859375 102.710938 25.78125 102.519531 C 25.703125 102.332031 25.792969 102.117188 25.980469 102.035156 L 30.636719 100.097656 C 30.824219 100.019531 31.039062 100.109375 31.117188 100.296875 Z M 31.117188 100.296875 "/>
<path style=" stroke:none;fill-rule:nonzero;fill:rgb(100%,80.000001%,0%);fill-opacity:1;" d="M 123.464844 22.121094 C 112.980469 22.121094 104.480469 30.621094 104.480469 41.105469 C 104.480469 45.949219 106.292969 50.367188 109.277344 53.71875 L 103.738281 65.378906 C 103.660156 65.550781 103.71875 65.753906 103.882812 65.851562 L 112.800781 71.28125 C 112.96875 71.386719 113.191406 71.335938 113.300781 71.171875 L 120.90625 59.917969 C 121.742188 60.03125 122.597656 60.089844 123.464844 60.089844 C 133.949219 60.089844 142.449219 51.589844 142.449219 41.105469 C 142.449219 30.621094 133.949219 22.121094 123.464844 22.121094 Z M 123.464844 22.121094 "/>
<path style=" stroke:none;fill-rule:evenodd;fill:rgb(100%,100%,100%);fill-opacity:1;" d="M 123.421875 39.148438 C 120.097656 42.996094 117.632812 47.273438 116.652344 49.722656 C 116.40625 50.335938 116.242188 50.859375 116.191406 51.242188 C 116.164062 51.425781 116.15625 51.628906 116.214844 51.800781 C 116.246094 51.890625 116.304688 51.996094 116.40625 52.074219 C 116.511719 52.15625 116.632812 52.183594 116.746094 52.183594 C 116.945312 52.179688 117.136719 52.074219 117.292969 51.964844 C 117.460938 51.847656 117.652344 51.679688 117.863281 51.460938 C 118.289062 51.027344 118.828125 50.375 119.496094 49.46875 C 121.734375 46.429688 123.332031 42.554688 124.09375 39.5 C 124.234375 39.339844 124.375 39.183594 124.515625 39.023438 C 125.382812 38.0625 126.082031 37.398438 126.613281 37.011719 C 126.882812 36.820312 127.089844 36.707031 127.242188 36.65625 C 127.371094 36.609375 127.425781 36.621094 127.433594 36.625 C 127.441406 36.632812 127.46875 36.664062 127.484375 36.765625 C 127.511719 36.902344 127.515625 37.117188 127.472656 37.425781 C 127.386719 38.035156 127.140625 38.910156 126.707031 40.050781 C 124.976562 44.617188 120.4375 53.125 112.683594 64.945312 C 112.574219 65.117188 112.621094 65.347656 112.789062 65.457031 C 112.960938 65.570312 113.191406 65.523438 113.304688 65.351562 C 121.0625 53.519531 125.636719 44.960938 127.398438 40.316406 C 127.839844 39.15625 128.109375 38.21875 128.207031 37.527344 C 128.253906 37.183594 128.261719 36.875 128.210938 36.621094 C 128.164062 36.367188 128.042969 36.113281 127.785156 35.972656 C 127.535156 35.839844 127.253906 35.871094 127.003906 35.953125 C 126.753906 36.039062 126.476562 36.199219 126.179688 36.414062 C 125.6875 36.773438 125.09375 37.320312 124.40625 38.050781 C 124.507812 37.476562 124.570312 36.945312 124.59375 36.476562 C 124.617188 36.0625 124.605469 35.6875 124.5625 35.363281 C 124.519531 35.042969 124.4375 34.75 124.300781 34.519531 C 124.15625 34.277344 123.9375 34.089844 123.640625 34.035156 C 123.355469 33.984375 123.066406 34.074219 122.789062 34.226562 C 122.246094 34.53125 121.601562 35.195312 120.839844 36.234375 C 118.765625 39.058594 116.257812 44.070312 113.96875 49.15625 C 111.679688 54.25 109.597656 59.453125 108.382812 62.691406 C 108.308594 62.882812 108.40625 63.097656 108.597656 63.167969 C 108.789062 63.242188 109.003906 63.144531 109.074219 62.953125 C 110.289062 59.726562 112.363281 54.539062 114.644531 49.457031 C 116.933594 44.371094 119.414062 39.425781 121.4375 36.671875 C 122.1875 35.648438 122.753906 35.097656 123.152344 34.871094 C 123.347656 34.761719 123.460938 34.757812 123.511719 34.765625 C 123.550781 34.773438 123.601562 34.792969 123.664062 34.898438 C 123.730469 35.011719 123.792969 35.191406 123.828125 35.460938 C 123.867188 35.726562 123.875 36.054688 123.855469 36.4375 C 123.816406 37.183594 123.671875 38.109375 123.421875 39.148438 Z M 123.421875 39.148438 "/>
<path style=" stroke:none;fill-rule:nonzero;fill:rgb(23.921569%,67.450982%,54.11765%);fill-opacity:1;" d="M 119.558594 100.269531 L 101.980469 105.046875 C 101.113281 105.285156 100.628906 106.199219 100.917969 107.046875 C 101.382812 108.410156 101.894531 109.902344 102.523438 111.6875 C 104.246094 116.570312 105.625 122.933594 109.503906 126.035156 C 115.476562 130.8125 127.34375 128.75 128.894531 119.832031 C 130.0625 113.113281 124.339844 104.042969 120.96875 100.625 C 120.601562 100.253906 120.0625 100.132812 119.558594 100.269531 Z M 119.558594 100.269531 "/>
<path style=" stroke:none;fill-rule:nonzero;fill:rgb(13.725491%,13.725491%,13.725491%);fill-opacity:1;" d="M 124.691406 107.671875 C 124.691406 107.671875 122.578125 106.667969 121.039062 107.382812 C 119.480469 108.109375 117.894531 109.039062 116.671875 109.824219 C 116.546875 109.902344 116.484375 110.046875 116.507812 110.191406 L 116.855469 112.421875 C 116.863281 112.457031 116.871094 112.488281 116.886719 112.519531 C 117.605469 114.082031 117.988281 115.933594 117.664062 118.027344 C 117.644531 118.164062 117.699219 118.296875 117.808594 118.382812 C 117.914062 118.464844 118.058594 118.476562 118.183594 118.421875 C 118.9375 118.078125 119.570312 117.257812 120.003906 116.386719 C 120.394531 115.605469 120.660156 114.714844 120.722656 113.9375 C 121.875 113.703125 123.273438 113.203125 124.472656 112.503906 C 125.757812 111.761719 125.800781 110.632812 125.800781 110.632812 Z M 124.691406 107.671875 "/>
<path style=" stroke:none;fill-rule:nonzero;fill:rgb(23.921569%,67.450982%,54.11765%);fill-opacity:1;" d="M 121.136719 95.785156 C 118.65625 94.546875 115.191406 96.820312 112.992188 98.113281 L 116.097656 104.320312 L 119.585938 103.15625 C 120.363281 105.480469 121.292969 108.195312 122.6875 110.523438 C 123.851562 112.464844 126.644531 112.460938 126.953125 109.359375 C 127.304688 105.871094 124.238281 97.335938 121.136719 95.785156 Z M 121.136719 95.785156 "/>
<path style=" stroke:none;fill-rule:nonzero;fill:rgb(23.921569%,67.450982%,54.11765%);fill-opacity:1;" d="M 116.484375 96.5625 C 114 95.320312 110.539062 97.597656 108.339844 98.890625 L 111.441406 105.09375 L 114.933594 103.933594 C 115.707031 106.257812 116.640625 108.972656 118.035156 111.300781 C 119.199219 113.238281 121.992188 113.238281 122.300781 110.136719 C 122.652344 106.644531 119.585938 98.113281 116.484375 96.5625 Z M 116.484375 96.5625 "/>
<path style=" stroke:none;fill-rule:nonzero;fill:rgb(23.921569%,67.450982%,54.11765%);fill-opacity:1;" d="M 111.828125 97.335938 C 109.347656 96.09375 105.882812 98.371094 103.6875 99.664062 L 106.789062 105.871094 L 110.277344 104.707031 C 111.054688 107.035156 111.984375 109.746094 113.382812 112.074219 C 114.542969 114.011719 117.335938 114.011719 117.648438 110.910156 C 117.996094 107.421875 114.933594 98.890625 111.828125 97.335938 Z M 111.828125 97.335938 "/>
<path style=" stroke:none;fill-rule:nonzero;fill:rgb(13.725491%,13.725491%,13.725491%);fill-opacity:1;" d="M 111.828125 97.335938 C 109.347656 96.09375 105.882812 98.371094 103.6875 99.664062 L 106.789062 105.871094 L 110.277344 104.707031 Z M 111.828125 97.335938 "/>
<path style=" stroke:none;fill-rule:nonzero;fill:rgb(23.921569%,67.450982%,54.11765%);fill-opacity:1;" d="M 96.707031 95.398438 C 99.28125 101.980469 100.074219 104.667969 102.007812 110.214844 C 102.289062 111.027344 103.183594 111.457031 103.957031 111.082031 C 105.777344 110.199219 107.953125 108.71875 107.953125 107.035156 C 107.953125 105.621094 107.777344 104.945312 107.175781 103.542969 C 106.789062 102.636719 105.710938 99.113281 103.296875 92.683594 C 99.808594 83.375 96.878906 80.335938 94.378906 81.050781 C 91.664062 81.824219 93.214844 86.480469 96.707031 95.398438 Z M 96.707031 95.398438 "/>
<path style=" stroke:none;fill-rule:nonzero;fill:rgb(23.921569%,67.450982%,54.11765%);fill-opacity:1;" d="M 107.886719 94.773438 C 106.84375 96.855469 107.164062 98.582031 106.238281 106.292969 C 105.691406 110.863281 103.183594 118.179688 108.339844 124.484375 C 111.828125 128.75 117.226562 123.320312 118.03125 118.085938 C 118.90625 112.382812 114.738281 108.394531 112.546875 107.117188 C 113.003906 103.550781 113.09375 99.984375 112.273438 96.96875 C 111.535156 94.273438 108.980469 92.582031 107.886719 94.773438 Z M 107.886719 94.773438 "/>
<path style=" stroke:none;fill-rule:evenodd;fill:rgb(0%,40.000001%,30.980393%);fill-opacity:1;" d="M 126.992188 108.992188 C 127.195312 109.011719 127.34375 109.191406 127.324219 109.394531 C 127.1875 110.75 126.597656 111.636719 125.773438 112.023438 C 124.65625 112.539062 123.320312 112.050781 122.527344 110.953125 C 122.207031 112.136719 121.457031 112.824219 120.546875 112.972656 C 119.570312 113.132812 118.535156 112.648438 117.875 111.726562 C 117.8125 111.964844 117.730469 112.179688 117.636719 112.378906 C 118.355469 114.019531 118.734375 115.960938 118.394531 118.140625 C 118.363281 118.34375 118.175781 118.480469 117.976562 118.449219 C 117.773438 118.421875 117.632812 118.230469 117.664062 118.027344 C 117.988281 115.933594 117.605469 114.082031 116.886719 112.519531 C 116.835938 112.410156 116.84375 112.285156 116.902344 112.183594 C 117.085938 111.859375 117.222656 111.429688 117.28125 110.875 C 117.355469 110.117188 117.257812 109.074219 117.019531 107.882812 C 116.976562 107.679688 117.105469 107.488281 117.304688 107.445312 C 117.503906 107.40625 117.703125 107.535156 117.742188 107.734375 C 117.988281 108.949219 118.101562 110.066406 118.019531 110.929688 C 118.148438 110.921875 118.28125 110.988281 118.351562 111.109375 C 118.871094 111.972656 119.722656 112.359375 120.429688 112.242188 C 121.097656 112.132812 121.789062 111.535156 121.933594 110.097656 C 122.019531 109.257812 121.890625 108.070312 121.589844 106.726562 C 121.546875 106.527344 121.671875 106.328125 121.871094 106.285156 C 122.070312 106.238281 122.269531 106.363281 122.3125 106.5625 C 122.617188 107.929688 122.765625 109.199219 122.671875 110.152344 C 122.804688 110.148438 122.933594 110.210938 123.007812 110.332031 C 123.625 111.363281 124.695312 111.703125 125.460938 111.351562 C 125.980469 111.109375 126.46875 110.5 126.585938 109.324219 C 126.609375 109.117188 126.789062 108.972656 126.992188 108.992188 Z M 105.289062 98.152344 C 105.480469 98.082031 105.691406 98.183594 105.761719 98.378906 C 106.164062 99.527344 106.492188 100.484375 106.753906 101.25 C 106.855469 101.546875 106.949219 101.816406 107.03125 102.058594 C 107.097656 102.25 106.996094 102.460938 106.800781 102.527344 C 106.609375 102.59375 106.398438 102.492188 106.332031 102.296875 C 106.246094 102.054688 106.15625 101.785156 106.054688 101.488281 C 105.789062 100.722656 105.464844 99.769531 105.0625 98.625 C 104.996094 98.429688 105.097656 98.21875 105.289062 98.152344 Z M 105.808594 108.996094 C 106.011719 109.03125 106.148438 109.21875 106.113281 109.421875 C 105.914062 110.578125 105.71875 111.8125 105.605469 113.097656 C 105.589844 113.300781 105.410156 113.449219 105.207031 113.433594 C 105.003906 113.414062 104.851562 113.234375 104.871094 113.03125 C 104.984375 111.71875 105.183594 110.457031 105.382812 109.296875 C 105.417969 109.09375 105.609375 108.960938 105.808594 108.996094 Z M 105.808594 108.996094 "/>
<path style=" stroke:none;fill-rule:evenodd;fill:rgb(100%,80.000001%,0%);fill-opacity:1;" d="M 98.179688 83.339844 C 96.734375 81.546875 95.515625 81.109375 94.480469 81.40625 C 94.164062 81.496094 93.933594 81.640625 93.769531 81.835938 C 93.605469 82.035156 93.484375 82.300781 93.417969 82.664062 C 93.382812 82.867188 93.191406 83 92.992188 82.964844 C 92.789062 82.929688 92.65625 82.738281 92.691406 82.535156 C 92.773438 82.078125 92.9375 81.679688 93.207031 81.359375 C 93.480469 81.035156 93.839844 80.820312 94.277344 80.695312 C 95.746094 80.273438 97.242188 81 98.757812 82.875 C 100.273438 84.757812 101.894531 87.890625 103.644531 92.554688 C 104.460938 94.726562 105.125 96.570312 105.660156 98.089844 C 106.011719 97.898438 106.375 97.714844 106.746094 97.539062 C 106.898438 96.351562 107.101562 95.511719 107.554688 94.609375 C 107.855469 94.003906 108.285156 93.613281 108.804688 93.464844 C 109.316406 93.316406 109.851562 93.425781 110.335938 93.683594 C 111.203125 94.144531 112 95.121094 112.453125 96.324219 C 113.640625 95.886719 114.898438 95.65625 116.042969 95.992188 C 117.734375 95.203125 119.679688 94.640625 121.304688 95.453125 C 122.164062 95.886719 122.984375 96.773438 123.710938 97.863281 C 124.449219 98.964844 125.125 100.308594 125.683594 101.707031 C 126.246094 103.105469 126.699219 104.570312 126.992188 105.90625 C 127.28125 107.234375 127.417969 108.46875 127.324219 109.398438 C 127.324219 109.402344 127.320312 109.40625 127.320312 109.414062 L 127.300781 109.546875 C 128.832031 112.917969 129.824219 116.652344 129.257812 119.894531 C 129.222656 120.09375 129.03125 120.230469 128.832031 120.195312 C 128.628906 120.160156 128.496094 119.96875 128.53125 119.765625 C 129.0625 116.710938 128.117188 113.105469 126.585938 109.753906 C 126.554688 109.691406 126.542969 109.617188 126.554688 109.546875 L 126.589844 109.316406 C 126.667969 108.5 126.550781 107.359375 126.269531 106.0625 C 125.988281 104.769531 125.546875 103.347656 124.996094 101.984375 C 124.449219 100.617188 123.796875 99.320312 123.097656 98.277344 C 122.390625 97.222656 121.664062 96.460938 120.972656 96.117188 C 119.835938 95.546875 118.417969 95.796875 116.953125 96.402344 C 117.871094 96.980469 118.738281 98.0625 119.5 99.335938 C 120.347656 100.765625 121.097656 102.5 121.65625 104.203125 C 121.71875 104.398438 121.613281 104.605469 121.421875 104.667969 C 121.226562 104.734375 121.019531 104.628906 120.953125 104.433594 C 120.410156 102.769531 119.679688 101.089844 118.863281 99.714844 C 118.035156 98.328125 117.152344 97.308594 116.320312 96.894531 C 116.199219 96.832031 116.078125 96.78125 115.953125 96.742188 C 114.988281 96.414062 113.855469 96.589844 112.671875 97.03125 C 112.714844 97.199219 112.757812 97.371094 112.796875 97.542969 C 113.703125 98.300781 114.558594 99.527344 115.300781 100.929688 C 116.078125 102.390625 116.746094 104.074219 117.226562 105.691406 C 117.285156 105.886719 117.175781 106.09375 116.976562 106.152344 C 116.78125 106.210938 116.574219 106.101562 116.519531 105.90625 C 116.046875 104.324219 115.398438 102.6875 114.648438 101.273438 C 114.136719 100.3125 113.589844 99.46875 113.03125 98.820312 C 113.40625 101.359375 113.285156 104.148438 112.945312 106.925781 C 113.761719 107.433594 114.78125 108.261719 115.722656 109.359375 C 115.855469 109.515625 115.835938 109.75 115.679688 109.882812 C 115.527344 110.015625 115.292969 109.996094 115.160156 109.84375 C 114.1875 108.707031 113.136719 107.886719 112.359375 107.4375 C 112.230469 107.359375 112.160156 107.214844 112.179688 107.070312 C 112.597656 103.824219 112.703125 100.609375 112.101562 97.824219 C 112.042969 97.570312 111.984375 97.316406 111.914062 97.066406 C 111.902344 97.015625 111.886719 96.964844 111.871094 96.914062 C 111.496094 95.683594 110.734375 94.730469 109.988281 94.335938 C 109.621094 94.140625 109.285156 94.097656 109.007812 94.175781 C 108.734375 94.253906 108.449219 94.472656 108.214844 94.941406 C 107.792969 95.789062 107.605469 96.574219 107.457031 97.835938 C 107.378906 98.460938 107.316406 99.195312 107.238281 100.101562 C 107.183594 100.71875 107.125 101.414062 107.050781 102.210938 C 106.941406 103.363281 106.800781 104.71875 106.605469 106.339844 C 106.582031 106.542969 106.398438 106.683594 106.195312 106.660156 C 105.992188 106.636719 105.847656 106.453125 105.871094 106.25 C 106.066406 104.640625 106.203125 103.289062 106.3125 102.144531 C 106.386719 101.363281 106.445312 100.675781 106.5 100.058594 C 106.554688 99.4375 106.601562 98.894531 106.648438 98.410156 C 106.304688 98.582031 105.964844 98.765625 105.636719 98.949219 C 105.539062 99.003906 105.425781 99.011719 105.324219 98.972656 C 105.222656 98.933594 105.140625 98.851562 105.105469 98.75 C 104.546875 97.15625 103.839844 95.183594 102.953125 92.8125 C 101.210938 88.171875 99.625 85.128906 98.179688 83.339844 Z M 98.179688 83.339844 "/>
<path style=" stroke:none;fill-rule:evenodd;fill:rgb(90.588236%,43.529412%,31.764707%);fill-opacity:1;" d="M 103.75 60.316406 C 103.851562 60.136719 104.078125 60.074219 104.253906 60.171875 L 117.441406 67.542969 C 117.617188 67.640625 117.683594 67.867188 117.582031 68.046875 C 117.484375 68.222656 117.257812 68.285156 117.078125 68.1875 L 103.894531 60.820312 C 103.714844 60.71875 103.652344 60.492188 103.75 60.316406 Z M 102.988281 62.234375 C 103.097656 62.0625 103.328125 62.011719 103.5 62.125 L 115.519531 69.878906 C 115.691406 69.992188 115.742188 70.21875 115.632812 70.390625 C 115.519531 70.5625 115.292969 70.613281 115.121094 70.503906 L 103.097656 62.746094 C 102.925781 62.636719 102.875 62.40625 102.988281 62.234375 Z M 102.988281 62.234375 "/>
<path style=" stroke:none;fill-rule:evenodd;fill:rgb(100%,80.000001%,0%);fill-opacity:1;" d="M 114.097656 7.777344 C 114.300781 7.742188 114.492188 7.878906 114.523438 8.082031 L 116.074219 17.777344 C 116.105469 17.980469 115.96875 18.167969 115.765625 18.203125 C 115.566406 18.234375 115.375 18.097656 115.34375 17.894531 L 113.792969 8.199219 C 113.757812 7.996094 113.898438 7.808594 114.097656 7.777344 Z M 132.113281 12.445312 C 132.308594 12.507812 132.414062 12.71875 132.347656 12.910156 L 130.410156 18.730469 C 130.34375 18.921875 130.132812 19.027344 129.941406 18.964844 C 129.746094 18.898438 129.640625 18.6875 129.707031 18.496094 L 131.644531 12.675781 C 131.710938 12.484375 131.917969 12.378906 132.113281 12.445312 Z M 99.640625 13.628906 C 99.824219 13.535156 100.046875 13.609375 100.140625 13.792969 L 104.792969 23.101562 C 104.882812 23.28125 104.808594 23.503906 104.628906 23.597656 C 104.445312 23.6875 104.222656 23.613281 104.132812 23.429688 L 99.476562 14.125 C 99.386719 13.941406 99.460938 13.71875 99.640625 13.628906 Z M 95.640625 28.074219 C 95.769531 27.917969 96.003906 27.890625 96.160156 28.019531 L 100.039062 31.121094 C 100.199219 31.25 100.222656 31.480469 100.097656 31.640625 C 99.96875 31.800781 99.738281 31.828125 99.578125 31.699219 L 95.699219 28.597656 C 95.539062 28.46875 95.511719 28.234375 95.640625 28.074219 Z M 95.640625 28.074219 "/>
<path style=" stroke:none;fill-rule:evenodd;fill:rgb(100%,80.000001%,0%);fill-opacity:1;" d="M 51.238281 30.414062 C 51.117188 30.25 50.886719 30.214844 50.722656 30.339844 C 50.558594 30.460938 50.523438 30.691406 50.648438 30.855469 C 51.023438 31.355469 51.84375 32.65625 52.136719 33.828125 C 52.433594 35.023438 52.511719 36.59375 52.511719 37.226562 C 52.511719 37.339844 52.5625 37.445312 52.652344 37.515625 C 52.738281 37.585938 52.851562 37.613281 52.964844 37.589844 C 54.121094 37.332031 57.054688 36.738281 59.519531 36.429688 C 61.777344 36.148438 63.992188 36.0625 65.035156 36.046875 C 65.503906 37.382812 65.929688 39.519531 65.777344 41.828125 C 65.613281 44.277344 64.796875 46.894531 62.703125 48.988281 C 60.648438 51.042969 57.546875 53.082031 54.433594 54.820312 C 54.320312 54.878906 54.25 54.996094 54.242188 55.121094 C 54.238281 55.25 54.292969 55.371094 54.398438 55.441406 C 59.011719 58.734375 62.941406 62.839844 65.773438 66.539062 C 67.617188 68.941406 69.195312 71.828125 70.394531 74.964844 C 71.824219 78.699219 72.710938 82.78125 72.878906 86.820312 C 73.085938 91.890625 72.152344 96.878906 69.734375 101.03125 C 69.628906 101.207031 69.691406 101.433594 69.867188 101.535156 C 70.042969 101.640625 70.269531 101.578125 70.371094 101.402344 C 72.847656 97.160156 73.804688 92.101562 73.625 86.996094 C 76.347656 85.105469 78.78125 81.875 77.421875 78.003906 C 76.792969 76.222656 75.765625 75.15625 74.535156 74.636719 C 73.414062 74.160156 72.164062 74.152344 70.972656 74.402344 C 69.761719 71.320312 68.195312 68.476562 66.363281 66.085938 C 63.589844 62.46875 59.777344 58.460938 55.296875 55.179688 C 58.261719 53.492188 61.210938 51.527344 63.226562 49.511719 C 65.480469 47.257812 66.34375 44.449219 66.515625 41.875 C 66.6875 39.308594 66.171875 36.945312 65.636719 35.542969 C 65.582031 35.402344 65.445312 35.304688 65.292969 35.304688 C 64.375 35.304688 61.929688 35.382812 59.429688 35.695312 C 57.203125 35.976562 54.609375 36.480469 53.242188 36.769531 C 53.214844 35.976562 53.117188 34.695312 52.855469 33.648438 C 52.527344 32.335938 51.640625 30.945312 51.238281 30.414062 Z M 76.722656 78.25 C 77.859375 81.476562 76.023438 84.28125 73.582031 86.113281 C 73.355469 82.355469 72.527344 78.585938 71.238281 75.101562 C 72.296875 74.898438 73.335938 74.933594 74.246094 75.316406 C 75.257812 75.746094 76.152344 76.632812 76.722656 78.25 Z M 52.820312 46.320312 C 52.917969 46.140625 52.847656 45.917969 52.667969 45.820312 C 52.488281 45.722656 52.265625 45.792969 52.167969 45.972656 C 51.152344 47.875 47.789062 52.964844 42.546875 57.898438 C 42.398438 58.039062 42.390625 58.273438 42.53125 58.421875 C 42.671875 58.570312 42.90625 58.578125 43.054688 58.4375 C 48.355469 53.445312 51.769531 48.296875 52.820312 46.320312 Z M 50.222656 71.332031 C 52.121094 71.039062 53.542969 71.5625 54.34375 72.511719 C 55.144531 73.457031 55.398438 74.917969 54.78125 76.660156 C 54.714844 76.851562 54.8125 77.066406 55.007812 77.132812 C 55.199219 77.199219 55.410156 77.101562 55.480469 76.90625 C 56.160156 74.984375 55.921875 73.230469 54.910156 72.03125 C 53.898438 70.835938 52.191406 70.28125 50.113281 70.601562 C 49.910156 70.632812 49.769531 70.820312 49.800781 71.023438 C 49.832031 71.226562 50.023438 71.363281 50.222656 71.332031 Z M 50.222656 71.332031 "/>
</g>
</svg>
