<svg width="148" height="148" viewBox="0 0 148 148" fill="none" xmlns="http://www.w3.org/2000/svg">
<g clip-path="url(#clip0_277_11972)">
<path d="M99.16 53H47.36C43.2731 53 39.96 56.3131 39.96 60.4H91.76C91.76 56.3131 95.0731 53 99.16 53Z" fill="#CCD5E1"/>
<path d="M54.76 119.6C54.76 123.687 58.0731 127 62.16 127H113.96C109.873 127 106.56 123.687 106.56 119.6V60.4C106.56 56.3131 103.247 53 99.16 53H47.36C51.4469 53 54.76 56.3131 54.76 60.4V119.6Z" fill="#F1F5F9"/>
<path d="M106.56 112.94V67.8L54.76 60.4V105.54L106.56 112.94Z" fill="white"/>
<path d="M62.1599 127H113.96C118.047 127 121.36 123.687 121.36 119.6H69.5599C69.5599 123.687 66.2468 127 62.1599 127Z" fill="#CCD5E1"/>
<path d="M62.1599 83.34H99.1599M62.1599 90H99.1599M88.0599 97.4H99.1599M88.0599 104.8H99.1599M88.0599 112.2H99.1599" stroke="#80CCB5" stroke-width="1.48" stroke-linecap="round" stroke-linejoin="round"/>
<path d="M77.9118 60.4985C78.7873 58.989 80.7264 58.4717 82.2429 59.3433C83.7594 60.2148 84.279 62.1451 83.4034 63.6547L75.4769 77.3213C74.6014 78.8309 72.6623 79.3481 71.1458 78.4765C69.6293 77.605 69.1097 75.6747 69.9852 74.1651L77.9118 60.4985Z" stroke="#80CCB5" stroke-width="1.48"/>
<path d="M77.9164 63.6547C77.0409 62.1451 77.5605 60.2148 79.077 59.3433C80.5934 58.4717 82.5325 58.989 83.4081 60.4985L91.3346 74.1651C92.2102 75.6747 91.6906 77.605 90.1741 78.4765C88.6576 79.3481 86.7185 78.8309 85.843 77.3213L77.9164 63.6547Z" stroke="#80CCB5" stroke-width="1.48"/>
<path d="M76.96 101.1C76.96 101.1 75.48 104.245 75.48 104.8C75.48 105.617 76.1426 106.28 76.96 106.28C77.7774 106.28 78.44 105.617 78.44 104.8C78.44 104.245 76.96 101.1 76.96 101.1ZM76.96 101.1H67.34M67.34 101.1C67.34 101.1 65.86 104.245 65.86 104.8C65.86 105.617 66.5226 106.28 67.34 106.28C68.1574 106.28 68.82 105.617 68.82 104.8C68.82 104.245 67.34 101.1 67.34 101.1ZM72.15 108.5V100.36M71.04 108.5H73.26" stroke="#80CCB5" stroke-width="1.48" stroke-linecap="round" stroke-linejoin="round"/>
<path d="M120.945 69.2439L114.019 99.9521C113.353 102.907 110.363 104.714 107.437 103.93C104.512 103.146 102.826 100.086 103.726 97.194L113.082 67.1371L120.945 69.2439Z" fill="#5BBDA0"/>
<path d="M118.768 78.8956L107.352 85.5464L113.083 67.1374L120.945 69.2442L118.768 78.8956Z" fill="#42A486"/>
<path d="M111.001 98.9973L112.355 93.9431" stroke="#80CCB5" stroke-width="1.48" stroke-linecap="round" stroke-linejoin="round"/>
<path fill-rule="evenodd" clip-rule="evenodd" d="M99.0249 53.904C99.0249 66.1647 108.964 76.104 121.225 76.104C133.486 76.104 143.425 66.1647 143.425 53.904C143.425 41.6432 133.486 31.704 121.225 31.704C108.964 31.704 99.0249 41.6432 99.0249 53.904Z" fill="#78B441"/>
<path d="M121.225 68.7042C113.051 68.7042 106.425 62.078 106.425 53.9042C106.425 45.7304 113.051 39.1042 121.225 39.1042C129.399 39.1042 136.025 45.7304 136.025 53.9042C136.025 62.078 129.399 68.7042 121.225 68.7042Z" fill="#CAE8DF"/>
<path d="M121.225 45.024C126.129 45.024 130.105 48.9997 130.105 53.904" stroke="white" stroke-width="2.96" stroke-linecap="round"/>
<path d="M16.8373 74.8531C16.3084 72.8793 17.4797 70.8504 19.4536 70.3215L44.471 63.6181C46.4449 63.0892 48.4737 64.2606 49.0026 66.2344L61.4518 112.695C61.9807 114.669 60.8093 116.698 58.8355 117.227L33.818 123.93C31.8442 124.459 29.8153 123.288 29.2865 121.314L16.8373 74.8531Z" fill="#78B441"/>
<path d="M18.9816 74.2786C18.77 73.489 19.2386 72.6775 20.0281 72.4659L29.6777 69.8803L29.8692 70.5951C30.1865 71.7794 31.4038 72.4822 32.5881 72.1649L34.0177 71.7819C35.202 71.4645 35.9048 70.2472 35.5875 69.0629L35.396 68.3481L45.0456 65.7625C45.8351 65.551 46.6466 66.0195 46.8582 66.8091L59.3074 113.27C59.5189 114.06 59.0504 114.871 58.2609 115.083L33.2434 121.786C32.4539 121.998 31.6423 121.529 31.4308 120.74L18.9816 74.2786Z" fill="white"/>
<path d="M33.9125 81.3266C34.2159 80.2035 35.3753 79.5358 36.5022 79.8354C37.6292 80.135 38.2968 81.2883 37.9935 82.4115L35.2473 92.5798C34.944 93.703 33.7845 94.3706 32.6576 94.071C31.5307 93.7715 30.863 92.6181 31.1663 91.4949L33.9125 81.3266Z" stroke="#80CCB5" stroke-width="1.48"/>
<path d="M34.4601 83.3582C33.6358 82.5372 33.6373 81.2046 34.4635 80.3817C35.2897 79.5588 36.6276 79.5572 37.4519 80.3783L44.9143 87.8112C45.7386 88.6322 45.737 89.9649 44.9109 90.7878C44.0847 91.6107 42.7468 91.6122 41.9225 90.7912L34.4601 83.3582Z" stroke="#80CCB5" stroke-width="1.48"/>
<path d="M33.6247 101.765C33.2016 100.186 34.1387 98.563 35.7177 98.1398L44.2951 95.8415C45.8742 95.4184 47.4973 96.3555 47.9204 97.9346C48.3435 99.5136 47.4064 101.137 45.8274 101.56L37.2499 103.858C35.6709 104.281 34.0478 103.344 33.6247 101.765Z" fill="#F1F5F9" stroke="#80CCB5" stroke-width="1.48"/>
<path d="M38.399 108.147L46.9765 105.849" stroke="#80CCB5" stroke-width="1.48" stroke-linecap="round"/>
<path d="M44.1036 95.1268L41.9592 95.7014L43.8745 102.849L46.0188 102.275C47.9927 101.746 49.164 99.717 48.6351 97.7431C48.1063 95.7693 46.0774 94.598 44.1036 95.1268Z" fill="#80CCB5"/>
<circle cx="3.7" cy="3.7" r="3.7" transform="matrix(-0.965926 -0.258819 -0.258819 0.965926 23.1105 62.7798)" fill="#78B441"/>
<circle cx="3.7" cy="3.7" r="3.7" transform="matrix(-0.965926 -0.258819 -0.258819 0.965926 17.3647 84.2235)" fill="#78B441"/>
<path d="M13.7908 83.2659C15.7646 83.7948 16.936 85.8236 16.4071 87.7974C16.3415 88.0422 16.2529 88.2747 16.1441 88.4931L9.19874 87.5376C9.09606 87.005 9.10943 86.4414 9.25926 85.8822C9.78815 83.9084 11.817 82.737 13.7908 83.2659Z" fill="#5BBDA0"/>
<path d="M25.3814 77.1782C26.7565 72.0462 23.7109 66.7712 18.579 65.3961C13.4471 64.021 8.17206 67.0666 6.79697 72.1985L4.30712 81.4907L22.8915 86.4704L25.3814 77.1782Z" fill="#78B441"/>
<circle cx="3.7" cy="3.7" r="3.7" transform="matrix(-0.965926 -0.258819 -0.258819 0.965926 15.0051 64.4384)" fill="#FFCC00"/>
<path d="M20.6659 66.1852C20.0107 65.8589 19.3134 65.5929 18.579 65.3961C17.8447 65.1994 17.1078 65.081 16.3772 65.036" stroke="#0F172A" stroke-width="1.48" stroke-linecap="round"/>
<path d="M23.6577 83.6113L5.07327 78.6316L3.29285 79.6595C2.69193 80.0065 2.25344 80.5779 2.07385 81.2482C1.69987 82.6439 2.52815 84.0785 3.92385 84.4525L21.7426 89.227C23.1384 89.601 24.573 88.7727 24.947 87.3769C25.1265 86.7067 25.0325 85.9926 24.6856 85.3917L23.6577 83.6113Z" fill="#78B441"/>
<path d="M25.3813 77.178L23.6576 83.611L24.6855 85.3915C25.0324 85.9924 25.1265 86.7065 24.9469 87.3767C24.5729 88.7725 23.1383 89.6007 21.7426 89.2268L17.8367 88.1802L18.9631 88.482C19.599 88.6524 20.2781 88.4937 20.7726 88.0591C21.4777 87.4395 21.6473 86.4083 21.178 85.5954L19.3689 82.4619L9.14235 79.7217L10.4372 79.7697C16.6544 79.9999 22.3729 76.3822 24.828 70.6656C25.7356 72.6345 25.9863 74.9201 25.3813 77.178Z" fill="#599F40"/>
<path d="M21.5132 83.0368L7.21748 79.2063" stroke="#0F172A" stroke-width="1.48" stroke-linecap="round"/>
</g>
<defs>
<clipPath id="clip0_277_11972">
<rect width="148" height="148" fill="white"/>
</clipPath>
</defs>
</svg>
